<svg xmlns="http://www.w3.org/2000/svg" viewBox="0 0 512 512">
	<path fill="none" stroke="black" stroke-width="1"
		  d="M 281.00,32.43
           C 306.24,29.31 329.15,35.98 352.00,46.00
             359.22,49.17 372.91,55.51 375.85,63.00
             379.26,71.67 374.61,78.76 370.42,86.00
             370.42,86.00 345.58,129.00 345.58,129.00
             337.24,143.55 338.68,143.98 329.00,144.00
             329.00,144.00 135.00,144.00 135.00,144.00
             125.64,143.98 126.73,143.81 118.85,130.00
             118.85,130.00 96.42,91.00 96.42,91.00
             93.13,85.27 87.55,77.46 87.10,71.00
             86.28,59.31 95.50,51.14 107.00,53.48
             111.64,54.42 123.88,61.27 129.00,63.74
             139.65,68.90 154.10,73.86 166.00,74.00
             166.00,74.00 173.00,74.00 173.00,74.00
             194.32,73.90 214.87,59.12 233.00,49.31
             250.02,40.10 261.91,35.55 281.00,32.43 Z
           M 124.00,208.00
           C 114.32,205.70 109.59,200.04 110.04,190.00
             110.21,186.30 111.01,183.16 113.56,180.33
             118.08,175.29 123.77,175.01 130.00,175.00
             130.00,175.00 329.00,175.00 329.00,175.00
             339.17,174.98 345.41,172.41 355.00,169.88
             355.00,169.88 390.00,160.42 390.00,160.42
             390.00,160.42 420.00,152.58 420.00,152.58
             424.91,151.21 435.30,148.06 440.00,148.08
             450.41,148.12 456.48,156.02 455.96,166.00
             455.42,176.32 447.69,179.47 439.00,181.85
             439.00,181.85 387.00,196.00 387.00,196.00
             387.00,196.00 428.00,207.00 428.00,207.00
             433.04,208.44 444.06,210.77 448.00,213.08
             454.22,216.74 456.32,222.07 455.96,229.00
             455.43,239.08 446.70,245.21 437.00,243.54
             437.00,243.54 401.00,234.15 401.00,234.15
             401.00,234.15 352.00,221.00 352.00,221.00
             352.00,221.00 360.63,232.00 360.63,232.00
             360.63,232.00 376.57,256.00 376.57,256.00
             392.72,284.15 407.95,326.29 408.00,359.00
             408.00,359.00 408.00,381.00 408.00,381.00
             407.91,388.54 405.66,399.69 403.57,407.00
             401.37,414.71 398.11,422.05 394.13,429.00
             372.10,467.51 325.89,477.26 285.00,479.04
             285.00,479.04 274.00,480.00 274.00,480.00
             274.00,480.00 233.00,480.00 233.00,480.00
             198.75,480.00 169.90,481.02 136.00,473.42
             110.36,467.68 86.69,455.76 72.09,433.00
             67.86,426.40 63.74,417.48 61.34,410.00
             58.78,402.01 56.10,389.34 56.00,381.00
             56.00,381.00 56.00,361.00 56.00,361.00
             56.10,338.40 62.14,311.95 70.60,291.00
             83.38,259.37 100.04,232.49 124.00,208.00 Z" />
</svg>
